<?xml version="1.0" encoding="UTF-8" standalone="no"?>
<svg
   version="1.1"
   width="345.29013"
   height="347.02234"
   id="svg8"
   sodipodi:docname="favicon.svg"
   inkscape:version="1.1 (c68e22c387, 2021-05-23)"
   xmlns:inkscape="http://www.inkscape.org/namespaces/inkscape"
   xmlns:sodipodi="http://sodipodi.sourceforge.net/DTD/sodipodi-0.dtd"
   xmlns="http://www.w3.org/2000/svg"
   xmlns:svg="http://www.w3.org/2000/svg">
  <defs
     id="defs12" />
  <sodipodi:namedview
     id="namedview10"
     pagecolor="#ffffff"
     bordercolor="#666666"
     borderopacity="1.0"
     inkscape:pageshadow="2"
     inkscape:pageopacity="0.0"
     inkscape:pagecheckerboard="0"
     showgrid="false"
     fit-margin-top="0"
     fit-margin-left="0"
     fit-margin-right="0"
     fit-margin-bottom="0"
     inkscape:zoom="0.61979753"
     inkscape:cx="189.57804"
     inkscape:cy="214.58621"
     inkscape:window-width="1440"
     inkscape:window-height="898"
     inkscape:window-x="-6"
     inkscape:window-y="-6"
     inkscape:window-maximized="1"
     inkscape:current-layer="svg8" />
  <g
     id="g6"
     transform="translate(-275.77193,-16.543376)">
    <g
       id="g4">
      <svg
         id="1622156504519"
         opacity="1"
         fill="#000000"
         viewBox="0.43000001 -64.800003 64.370003 64.730003"
         width="346.31061"
         preserveAspectRatio="none"
         height="348.24741"
         x="275.34"
         y="16.469999"
         version="1.1">
        <path
           id="textPath"
           d="M 31.32,-0.07 V -26.71 L 7.06,-40.75 c 2.8,-8.5 9.79,-15.12 18.5,-17.43 v 17.36 h 5.76 V -64.8 c -1.94,0.07 -3.89,0.29 -5.76,0.72 -12.89,2.74 -22.9,13.1 -25.13,26.21 L 25.56,-23.4 V -6.7 C 16.85,-9 9.94,-15.62 7.13,-24.05 H 1.08 c 3.1,11.67 12.6,20.74 24.48,23.26 1.87,0.43 3.82,0.65 5.76,0.72 z m 2.16,0 c 1.94,-0.07 3.89,-0.29 5.76,-0.72 14.54,-3.1 25.56,-16.13 25.56,-31.61 0,-0.58 -0.07,-1.15 -0.07,-1.73 l -6.12,-3.74 -11.45,6.62 2.88,5.04 8.57,-4.97 0.36,0.22 C 58.32,-19.3 50.11,-9.58 39.24,-6.7 v -51.48 c 8.64,2.31 15.62,8.93 18.43,17.36 h 5.98 c -3.1,-11.67 -12.53,-20.74 -24.41,-23.26 -1.87,-0.43 -3.82,-0.65 -5.76,-0.72 z" />
      </svg>
    </g>
  </g>
  <path
     style="fill:#2b0000;stroke:#001128;stroke-width:0;stroke-linejoin:bevel"
     d="M 162.46171,0.20732377 C 122.13303,3.6399928 82.52265,19.116034 53.06358,47.340284 25.22083,72.744294 7.1791505,107.75671 4.907389e-7,144.53684 45.05064,170.35243 90.10169,196.16731 135.15314,221.98148 c -0.32355,30.26979 0.86515,61.34041 -0.67752,91.1399 C 89.20248,300.46881 51.19686,264.95649 35.24967,220.91952 25.31681,218.17652 14.56849,220.20853 4.3329505,219.56134 21.43081,289.87349 88.65405,343.82621 160.68719,346.94232 c 10.89991,1.25209 2.71263,-16.87639 5.24402,-24.12145 0,-39.08787 0,-78.17573 0,-117.2636 C 122.49289,180.16993 78.32568,155.36989 35.38202,129.54013 44.23369,98.092014 67.01827,71.318154 93.84414,53.335394 c 13.06846,-7.40334 26.48003,-15.21405 41.4319,-17.96034 0,30.74026 0,61.48052 0,92.220766 10.21839,0 20.43678,0 30.65517,0 -0.68965,-42.229236 1.50344,-84.650326 -1.47793,-126.76140123 -0.14788,-0.882865 -1.25554,-1.017263 -1.99157,-0.627095 z"
     id="path903" />
  <path
     style="fill:#000000;stroke:#001128;stroke-width:0;stroke-linejoin:bevel"
     d="m 177.22522,173.44938 c 0,57.85765 0,115.71529 0,173.57294 56.87255,-0.0463 111.54486,-32.84873 141.33585,-80.86373 19.33181,-29.86351 28.45171,-65.76028 26.46088,-101.23014 -10.83962,-6.54753 -21.6788,-13.09578 -32.51755,-19.64477 -19.61346,11.83748 -40.72978,22.24626 -59.33137,35.14883 2.28312,9.57247 8.69025,17.80924 13.60386,26.22139 15.79936,-8.00744 30.84311,-19.02451 46.94389,-25.57539 2.01823,16.00417 -4.87267,32.2712 -9.80033,47.43233 -17.43652,40.13583 -52.97895,73.88023 -96.04006,84.36789 0.52135,-92.01831 -1.21193,-184.08974 1.36133,-276.073016 3.33703,-2.83945 11.58527,3.8094 16.25849,4.34732 38.55643,15.77066 68.73911,49.11168 82.89814,88.056216 9.89727,-0.72144 20.80332,1.53165 30.16988,-1.64494 C 320.61939,57.996314 254.78373,5.0593008 183.30149,0.50763077 171.43975,-2.5466262 179.65044,16.664618 177.22522,24.077894 c 0,49.7905 0,99.580986 0,149.371486 z"
     id="path942" />
  <path
     style="fill:#000000;stroke:#001128;stroke-width:0;stroke-linejoin:bevel"
     d="M 161.40604,0.14744977 C 102.93422,4.4493288 46.93777,38.358684 19.26663,90.572014 10.70257,107.45226 2.3000205,125.71233 0.75000049,144.62507 44.87493,170.94632 89.96766,196.15181 134.46932,222.03505 c 0.28571,29.97451 0.57143,59.94901 0.85714,89.92353 -31.0016,-6.16531 -57.84899,-26.77765 -77.33057,-51.10803 -9.82647,-12.0691 -17.0087,-25.99909 -22.55399,-40.4825 -9.80307,1.09017 -21.52911,-3.37266 -30.3495095,1.21008 2.45033,16.97336 12.0096195,32.83298 20.9241795,47.43862 30.59893,46.12222 84.06465,77.98117 139.9493,78.00557 -0.28211,-47.39871 -0.56256,-94.79741 -0.84138,-142.19613 -42.18515,-25.33428 -86.06184,-48.07289 -126.89375,-75.53501 -4.65948,-5.67239 4.01005,-13.41923 5.31159,-19.27804 17.16983,-36.237326 51.97669,-63.815416 90.12973,-74.074016 3.28447,30.87413 0.82077,62.30651 1.60398,93.389876 9.94948,-0.30882 19.89897,-0.61764 29.84845,-0.92646 0.28152,-42.755896 0.56303,-85.511796 0.84454,-128.26769523 -1.52093,0.0097 -3.04225,-0.01822 -4.56299,0.0126 z"
     id="path1055" />
</svg>
